<svg xmlns="http://www.w3.org/2000/svg" direction="ltr" width="688" height="1121" viewBox="-6329.807443303062 57086 688 1121" stroke-linecap="round" stroke-linejoin="round" data-color-mode="light" class="tl-container tl-theme__force-sRGB tl-theme__light" style="background-color: transparent;"><defs/><g transform="matrix(1, 0, 0, 1, -6329.8074, 57086)" opacity="1"><g data-lovart-layer-name="SVG 1"><g transform="scale(1, 1)"><g>
<g xmlns="http://www.w3.org/2000/svg" stroke-width="2.00" fill="none" stroke-linecap="butt">
<path stroke="#6e706d" vector-effect="non-scaling-stroke" d="   M 167.26 316.57   L 194.25 300.18"/>
<path stroke="#6e706d" vector-effect="non-scaling-stroke" d="   M 283.37 246.99   Q 303.56 236.00 322.82 223.46"/>
<path stroke="#6e706d" vector-effect="non-scaling-stroke" d="   M 239.91 538.46   Q 248.34 534.67 255.95 529.36"/>
<path stroke="#6e706d" vector-effect="non-scaling-stroke" d="   M 259.99 527.00   Q 278.61 516.65 291.03 509.25   Q 318.50 492.88 326.92 488.07   C 335.94 482.93 343.87 477.77 351.84 473.14   Q 395.54 447.74 443.91 419.18   C 453.61 413.45 461.87 409.14 470.77 403.73   Q 475.72 400.72 490.85 391.99   Q 514.55 378.31 537.95 364.06"/>
<path stroke="#6e706d" vector-effect="non-scaling-stroke" d="   M 540.97 362.44   L 563.55 349.20"/>
<path stroke="#6e706d" vector-effect="non-scaling-stroke" d="   M 328.45 744.85   Q 329.70 745.14 330.91 743.41"/>
<path stroke="#6e706d" vector-effect="non-scaling-stroke" d="   M 333.01 742.30   Q 345.07 735.71 356.91 728.87   Q 367.57 722.72 378.03 716.18"/>
</g>
<path xmlns="http://www.w3.org/2000/svg" fill="#000000" d="   M 167.26 316.57   L 194.25 300.18   L 283.37 246.99   Q 303.56 236.00 322.82 223.46   Q 364.02 199.02 405.22 174.45   Q 409.33 172.00 411.09 170.86   C 416.21 167.52 422.56 164.28 426.28 161.92   Q 432.40 158.02 435.40 156.31   C 446.07 150.25 466.40 138.04 484.31 127.46   Q 489.46 124.42 503.23 116.05   Q 508.38 112.92 513.61 109.85   Q 562.70 81.07 569.31 76.85   C 578.57 70.95 588.40 65.02 597.00 60.23   Q 607.56 54.36 657.61 23.94   Q 664.63 19.67 668.03 17.76   Q 675.16 13.75 678.36 11.54   A 0.48 0.48 0.0 0 1 679.09 12.07   Q 678.62 13.66 677.20 16.95   Q 676.55 18.43 660.95 52.91   Q 654.82 66.45 653.40 69.87   Q 648.53 81.59 645.93 86.89   Q 644.09 90.63 636.21 109.13   C 633.32 115.92 627.89 127.33 623.10 138.70   Q 619.21 147.90 610.38 167.58   Q 600.93 188.67 552.98 298.26   Q 552.02 300.47 549.64 301.84   Q 544.31 304.92 539.48 307.94   Q 539.47 307.95 513.50 323.81   Q 506.08 328.34 494.66 334.97   Q 481.22 342.77 475.76 346.05   Q 447.23 363.20 446.45 363.65   C 432.15 371.80 415.85 382.43 402.37 389.85   Q 401.48 390.34 394.89 394.32   Q 334.54 430.80 248.53 481.59   A 1.90 1.87 -52.7 0 1 247.14 481.79   C 245.26 481.34 243.80 480.22 241.54 479.16   Q 240.76 478.78 197.71 459.20   Q 190.21 455.79 154.00 439.03   C 115.49 421.21 89.95 410.10 54.10 393.37   C 51.61 392.21 48.94 391.50 47.04 390.78   A 2.21 2.17 -10.3 0 1 46.26 390.25   Q 45.80 389.75 45.62 389.32   A 1.11 1.11 0.0 0 1 46.29 387.84   C 50.95 386.30 55.15 382.76 59.37 380.46   C 67.54 376.01 76.31 370.23 85.14 365.16   C 95.62 359.14 112.09 348.72 126.01 341.02   C 132.44 337.46 139.06 332.91 145.29 329.31   Q 155.49 323.42 165.83 317.09   Q 166.61 316.62 167.26 316.57   Z"/>
<path xmlns="http://www.w3.org/2000/svg" fill="#dce0db" fill-opacity="0.996" d="   M 322.82 223.46   Q 303.56 236.00 283.37 246.99   L 322.82 223.46   Z"/>
<path xmlns="http://www.w3.org/2000/svg" fill="#dce0db" fill-opacity="0.996" d="   M 194.25 300.18   L 167.26 316.57   L 194.25 300.18   Z"/>
<path xmlns="http://www.w3.org/2000/svg" fill="#000000" d="   M 239.91 538.46   Q 248.34 534.67 255.95 529.36   Q 257.69 527.70 259.99 527.00   Q 278.61 516.65 291.03 509.25   Q 318.50 492.88 326.92 488.07   C 335.94 482.93 343.87 477.77 351.84 473.14   Q 395.54 447.74 443.91 419.18   C 453.61 413.45 461.87 409.14 470.77 403.73   Q 475.72 400.72 490.85 391.99   Q 514.55 378.31 537.95 364.06   Q 539.40 362.96 540.97 362.44   L 563.55 349.20   L 568.92 346.16   A 0.65 0.65 0.0 0 1 569.78 347.08   Q 568.57 348.89 567.68 350.86   Q 546.29 398.73 536.13 421.47   Q 533.13 428.20 531.98 430.87   Q 519.94 458.78 499.61 503.61   Q 496.76 509.89 495.17 513.57   C 489.94 525.66 482.94 540.45 480.20 546.93   C 473.61 562.48 468.73 572.25 461.64 588.65   Q 455.81 602.12 448.55 618.05   Q 447.23 620.93 444.18 622.70   Q 422.41 635.32 318.24 697.01   Q 296.25 710.04 289.44 714.05   Q 268.12 726.60 264.70 728.66   C 252.17 736.21 241.41 742.22 231.65 748.02   Q 183.25 776.74 135.81 804.31   Q 132.24 806.39 130.55 810.30   Q 125.15 822.87 119.10 835.09   C 109.35 854.83 99.82 875.34 90.26 895.91   C 81.80 914.08 72.23 933.34 64.30 950.59   Q 63.94 951.36 17.28 1050.20   Q 15.09 1054.84 9.27 1066.56   A 0.14 0.14 0.0 0 1 9.01 1066.47   C 18.19 1030.94 29.72 989.78 50.15 915.64   C 55.50 896.23 59.27 884.20 64.30 865.38   Q 65.45 861.06 70.18 844.25   Q 87.88 781.27 102.88 728.49   Q 104.67 722.18 107.92 709.96   C 109.98 702.20 112.42 694.48 114.92 685.32   Q 128.19 636.83 135.11 612.57   Q 136.02 609.40 138.85 600.11   Q 139.88 596.76 143.61 594.55   Q 150.51 590.47 155.67 587.46   C 165.79 581.57 173.63 576.49 182.70 571.56   Q 194.87 564.93 206.80 557.91   Q 223.37 548.14 239.91 538.46   Z"/>
<path xmlns="http://www.w3.org/2000/svg" fill="#dce0db" fill-opacity="0.996" d="   M 563.55 349.20   L 540.97 362.44   L 563.55 349.20   Z"/>
<path xmlns="http://www.w3.org/2000/svg" fill="#dce0db" fill-opacity="0.996" d="   M 537.95 364.06   Q 514.55 378.31 490.85 391.99   Q 475.72 400.72 470.77 403.73   C 461.87 409.14 453.61 413.45 443.91 419.18   Q 395.54 447.74 351.84 473.14   C 343.87 477.77 335.94 482.93 326.92 488.07   Q 318.50 492.88 291.03 509.25   Q 278.61 516.65 259.99 527.00   Q 287.76 510.28 315.64 493.81   Q 321.20 490.53 321.29 490.48   Q 331.64 484.92 341.42 478.41   Q 344.28 476.50 347.34 474.73   Q 350.17 473.10 353.37 471.26   Q 401.51 443.56 441.97 419.45   Q 454.65 411.90 458.85 409.71   C 466.77 405.59 471.50 402.31 478.32 398.49   Q 482.87 395.95 486.15 394.02   Q 511.92 378.86 537.95 364.06   Z"/>
<path xmlns="http://www.w3.org/2000/svg" fill="#000000" d="   M 8.78 409.77   Q 16.05 412.67 22.87 415.98   C 42.01 425.25 62.13 433.98 78.05 441.47   Q 78.17 441.54 82.84 443.43   Q 87.66 445.40 112.65 457.15   Q 113.34 457.48 130.14 464.97   Q 141.01 469.82 147.63 472.83   Q 200.16 496.76 206.14 499.33   Q 210.73 501.31 211.31 501.38   A 1.19 1.19 0.0 0 1 212.22 503.10   Q 212.17 503.20 211.27 503.77   C 202.96 509.03 194.14 513.74 186.01 518.55   Q 163.48 531.84 156.02 536.19   C 142.23 544.22 130.40 551.79 117.94 558.66   A 3.20 3.01 -83.2 0 0 117.02 559.43   Q 115.72 561.01 114.85 564.13   Q 92.76 643.57 88.63 657.93   C 83.67 675.13 79.57 691.78 75.15 707.16   Q 67.33 734.39 59.04 764.92   C 55.34 778.53 51.26 791.33 47.64 805.60   Q 45.43 814.37 43.19 821.90   Q 41.54 827.48 33.03 859.11   Q 28.49 876.00 22.63 896.27   Q 15.21 921.94 8.84 941.61   A 0.33 0.32 48.1 0 1 8.21 941.57   Q 8.15 941.29 8.16 940.76   Q 8.84 916.58 8.85 899.88   Q 9.05 707.72 8.85 470.26   Q 8.83 452.14 8.69 418.64   C 8.68 415.97 8.42 413.13 8.33 410.08   A 0.33 0.32 10.0 0 1 8.78 409.77   Z"/>
<path xmlns="http://www.w3.org/2000/svg" fill="#dce0db" fill-opacity="0.996" d="   M 255.95 529.36   Q 248.34 534.67 239.91 538.46   L 255.95 529.36   Z"/>
<path xmlns="http://www.w3.org/2000/svg" fill="#000000" d="   M 328.45 744.85   Q 329.70 745.14 330.91 743.41   Q 331.82 742.55 333.01 742.30   Q 345.07 735.71 356.91 728.87   Q 367.57 722.72 378.03 716.18   L 462.55 666.96   A 0.62 0.62 0.0 0 1 463.43 667.73   Q 462.06 671.05 459.48 676.79   Q 430.55 741.32 379.10 853.62   Q 366.08 882.04 349.97 917.67   C 349.37 918.99 346.71 920.84 345.08 921.79   C 336.50 926.77 316.94 937.85 303.12 946.53   Q 296.63 950.61 288.56 955.16   A 0.61 0.61 0.0 0 1 287.65 954.63   L 287.65 769.73   A 1.52 1.50 -15.4 0 1 288.40 768.43   L 328.45 744.85   Z"/>
<path xmlns="http://www.w3.org/2000/svg" fill="#dce0db" fill-opacity="0.996" d="   M 378.03 716.18   Q 367.57 722.72 356.91 728.87   Q 345.07 735.71 333.01 742.30   L 378.03 716.18   Z"/>
<path xmlns="http://www.w3.org/2000/svg" fill="#dce0db" fill-opacity="0.996" d="   M 330.91 743.41   Q 329.70 745.14 328.45 744.85   L 330.91 743.41   Z"/>
<path xmlns="http://www.w3.org/2000/svg" fill="#000000" d="   M 148.08 849.56   L 254.36 787.30   A 0.30 0.30 0.0 0 1 254.81 787.56   L 254.81 975.98   A 0.30 0.30 0.0 0 1 254.66 976.24   L 24.17 1111.27   A 0.30 0.30 0.0 0 1 23.75 1110.88   L 147.96 849.69   A 0.30 0.30 0.0 0 1 148.08 849.56   Z"/>
</g></g></g></g></svg>